<svg width="150" height="150" viewBox="0 0 150 150" fill="none" xmlns="http://www.w3.org/2000/svg">
<rect width="150" height="150" rx="32" fill="black"/>
<path d="M113.651 79.9855C113.172 79.9855 112.771 79.6217 112.727 79.1466C110.889 59.8062 94.8305 45.2247 75.3788 45.2247C55.927 45.2247 39.8718 59.8099 38.0305 79.1466C37.986 79.6217 37.5851 79.9855 37.1062 79.9855C36.6274 79.9855 36.2264 79.6217 36.1819 79.1466C36.0631 77.8844 36 76.6149 36 75.375C36 53.6625 53.6625 36 75.375 36C97.0875 36 114.75 53.6625 114.75 75.375C114.75 76.6149 114.691 77.8844 114.568 79.1466C114.524 79.6217 114.123 79.9855 113.644 79.9855H113.651ZM75.3825 43.3687C85.242 43.3687 94.6746 47.0289 101.943 53.6774C106.698 58.028 110.269 63.407 112.415 69.3464C109.523 51.5132 94.0176 37.8524 75.3788 37.8524C56.7399 37.8524 41.2342 51.5132 38.3424 69.3464C40.488 63.407 44.0591 58.028 48.8144 53.6774C56.0829 47.0289 65.5192 43.3687 75.375 43.3687H75.3825Z" fill="white"/>
<path d="M113.115 83.6682C112.67 83.6682 112.288 83.3527 112.206 82.9183C108.795 65.3449 93.3074 52.5899 75.3776 52.5899C57.4478 52.5899 41.9605 65.3449 38.549 82.9183C38.4637 83.3527 38.0813 83.6682 37.6396 83.6682C37.1941 83.6682 36.8118 83.3527 36.7301 82.9183C36.4888 81.671 36.3032 80.4015 36.1844 79.1468C36.1807 79.0874 36.1807 79.028 36.1844 78.9723C37.1088 69.2687 41.5931 60.2852 48.817 53.6813C56.0854 47.0328 65.5218 43.3726 75.3776 43.3726C85.2334 43.3726 94.6697 47.0328 101.938 53.6813C109.162 60.2852 113.646 69.2687 114.571 78.9723C114.574 79.0317 114.574 79.0911 114.571 79.1468C114.452 80.4052 114.266 81.6748 114.025 82.9183C113.94 83.3564 113.557 83.6682 113.115 83.6682ZM75.3776 45.2212C56.7462 45.2212 41.233 58.5962 38.3412 76.719C43.8872 61.3618 58.6171 50.7338 75.3776 50.7338C92.138 50.7338 106.868 61.358 112.414 76.719C109.522 58.5999 94.0053 45.2212 75.3776 45.2212Z" fill="white"/>
<path d="M112.21 87.3547C111.801 87.3547 111.437 87.0874 111.322 86.6939C106.604 70.9543 91.8261 59.9625 75.3812 59.9625C58.9362 59.9625 44.1543 70.9543 39.4399 86.6939C39.3211 87.0874 38.961 87.3547 38.5526 87.3547C38.1443 87.3547 37.7805 87.0874 37.6655 86.6939C37.2942 85.4577 36.9824 84.1882 36.7374 82.9186C36.7151 82.8035 36.7151 82.681 36.7374 82.566C40.3197 64.1239 56.5715 50.7378 75.3885 50.7378C94.2055 50.7378 110.457 64.1239 114.04 82.566C114.062 82.681 114.062 82.8035 114.04 82.9186C113.795 84.1882 113.479 85.4577 113.112 86.6939C112.993 87.0874 112.633 87.3547 112.224 87.3547H112.21ZM75.3775 58.1065C84.0194 58.1065 92.2195 60.8535 99.0945 66.0505C104.908 70.442 109.44 76.452 112.076 83.2007C112.109 83.0485 112.139 82.8963 112.169 82.7441C108.687 65.2635 93.2441 52.5939 75.3775 52.5939C57.5108 52.5939 42.0644 65.2635 38.5861 82.7441C38.6158 82.8963 38.6492 83.0485 38.6789 83.2007C41.3182 76.452 45.8508 70.442 51.6603 66.0505C58.5353 60.8535 66.7355 58.1065 75.3775 58.1065Z" fill="white"/>
<path d="M110.894 91.0368C110.519 91.0368 110.181 90.8103 110.036 90.4651C104.197 76.4108 90.5918 67.3271 75.3756 67.3271C60.1594 67.3271 46.5542 76.4071 40.715 90.4651C40.5702 90.8103 40.2324 91.0368 39.8575 91.0368C39.4825 91.0368 39.1448 90.8103 39 90.4651C38.4914 89.2363 38.0385 87.9668 37.6562 86.6898C37.6042 86.5153 37.6042 86.3297 37.6562 86.1552C40.0357 78.2112 45.01 71.069 51.6585 66.0427C58.5334 60.8456 66.7337 58.0986 75.3756 58.0986C84.0175 58.0986 92.2177 60.8456 99.0926 66.0427C105.745 71.069 110.715 78.2112 113.099 86.1552C113.151 86.3297 113.151 86.5153 113.099 86.6898C112.716 87.9705 112.263 89.2401 111.755 90.4651C111.61 90.8103 111.272 91.0368 110.897 91.0368H110.894ZM75.3756 65.471C90.5881 65.471 104.264 74.1167 110.823 87.6847C110.968 87.2652 111.105 86.8457 111.235 86.4225C106.432 70.8277 91.724 59.9584 75.3756 59.9584C59.0272 59.9584 44.3158 70.8277 39.5123 86.4225C39.6422 86.8457 39.7796 87.2652 39.9243 87.6847C46.4838 74.1167 60.1594 65.471 75.3719 65.471H75.3756Z" fill="white"/>
<path d="M109.134 94.7231C108.796 94.7231 108.484 94.5375 108.321 94.2405C101.728 82.1871 89.1069 74.6997 75.383 74.6997C61.6591 74.6997 49.0376 82.1871 42.4448 94.2405C42.2814 94.5375 41.9696 94.7231 41.6318 94.7231C41.294 94.7231 40.9822 94.5375 40.8189 94.2405C40.1544 93.0229 39.5456 91.7534 39.011 90.4653C38.9182 90.2388 38.9182 89.9827 39.011 89.7525C45.1398 75.0041 59.4168 65.4712 75.3866 65.4712C91.3564 65.4712 105.633 75.0003 111.762 89.7525C111.855 89.979 111.855 90.2351 111.762 90.4653C111.228 91.7534 110.619 93.0229 109.954 94.2405C109.791 94.5375 109.479 94.7231 109.141 94.7231H109.134ZM75.383 72.8436C89.2108 72.8436 101.973 80.086 109.093 91.861C109.375 91.2856 109.643 90.6991 109.895 90.1126C103.974 76.2625 90.4729 67.331 75.383 67.331C60.293 67.331 46.7917 76.2588 40.8708 90.1126C41.1232 90.7028 41.3906 91.2856 41.6727 91.861C48.7926 80.086 61.5551 72.8436 75.383 72.8436Z" fill="white"/>
<path d="M106.834 98.4051C106.534 98.4051 106.248 98.2566 106.077 98.0116C99.0462 88.0259 87.5719 82.0641 75.3775 82.0641C63.183 82.0641 51.7086 88.0259 44.6777 98.0116C44.5032 98.2603 44.2212 98.4051 43.9205 98.4051C43.6198 98.4051 43.334 98.2566 43.1632 98.0116C42.3094 96.8014 41.5187 95.5319 40.8134 94.2363C40.6612 93.9579 40.6612 93.6238 40.8134 93.3454C47.7329 80.698 60.9779 72.8394 75.3812 72.8394C89.7844 72.8394 103.029 80.698 109.949 93.3454C110.101 93.6238 110.101 93.9579 109.949 94.2363C109.24 95.5282 108.449 96.7977 107.599 98.0116C107.425 98.2603 107.143 98.4051 106.842 98.4051H106.834ZM42.688 93.7909C43.0852 94.4925 43.5047 95.1866 43.9501 95.8623C51.3782 86.0361 63.0308 80.208 75.3812 80.208C87.7316 80.208 99.3803 86.0361 106.812 95.8623C107.254 95.1829 107.677 94.4925 108.074 93.7909C101.415 81.9973 88.9379 74.6954 75.3848 74.6954C61.8317 74.6954 49.3514 82.001 42.6955 93.7909H42.688Z" fill="white"/>
<path d="M103.893 102.091C103.63 102.091 103.381 101.98 103.207 101.787C96.1015 93.9395 85.9599 89.4367 75.3839 89.4367C64.8079 89.4367 54.6662 93.9395 47.5611 101.787C47.2084 102.177 46.5365 102.177 46.1839 101.787C45.1111 100.599 44.094 99.3296 43.1659 98.0155C42.9395 97.6962 42.9395 97.2656 43.1659 96.9464C50.542 86.4669 62.588 80.2119 75.3839 80.2119C88.1798 80.2119 100.222 86.4669 107.598 96.9464C107.824 97.2656 107.824 97.6962 107.598 98.0155C106.67 99.3333 105.657 100.603 104.584 101.787C104.409 101.98 104.157 102.091 103.897 102.091H103.893ZM75.3802 87.5806C86.1343 87.5806 96.4616 92.0129 103.875 99.7825C104.51 99.0401 105.118 98.2716 105.697 97.4809C98.6369 87.8182 87.3557 82.068 75.3839 82.068C63.4121 82.068 52.1271 87.8182 45.0665 97.4809C45.6456 98.2716 46.2545 99.0401 46.8892 99.7825C54.3025 92.0166 64.626 87.5806 75.3839 87.5806H75.3802Z" fill="white"/>
<path d="M100.061 105.778C99.8497 105.778 99.6381 105.707 99.4636 105.563C92.7297 99.9163 84.1769 96.8092 75.3791 96.8092C66.5812 96.8092 58.0283 99.9163 51.2945 105.563C50.9492 105.852 50.4481 105.852 50.1029 105.563C48.7108 104.393 47.3893 103.124 46.1828 101.791C45.8635 101.438 45.8635 100.9 46.1828 100.544C53.6368 92.3064 64.2797 87.5845 75.3828 87.5845C86.4859 87.5845 97.1287 92.3101 104.583 100.544C104.902 100.896 104.902 101.435 104.583 101.791C103.373 103.127 102.055 104.397 100.663 105.563C100.492 105.707 100.277 105.778 100.065 105.778H100.061ZM75.3791 94.9494C84.3477 94.9494 93.0787 98.0305 100.05 103.636C100.949 102.853 101.813 102.021 102.626 101.164C95.5547 93.6984 85.6729 89.4368 75.3791 89.4368C65.0852 89.4368 55.2034 93.6984 48.1317 101.164C48.9484 102.025 49.8096 102.853 50.7079 103.636C57.6794 98.0268 66.4068 94.9494 75.3791 94.9494Z" fill="white"/>
<path d="M94.8427 109.46C94.6794 109.46 94.516 109.415 94.3713 109.33C88.6359 105.956 82.0691 104.174 75.3798 104.174C68.6905 104.174 62.1236 105.956 56.3883 109.33C56.0987 109.501 55.7386 109.501 55.4454 109.33C53.5707 108.227 51.7704 106.958 50.0999 105.558C49.8883 105.38 49.7695 105.12 49.7695 104.846C49.7695 104.571 49.892 104.311 50.0999 104.133C57.1679 98.2083 66.1439 94.9453 75.3798 94.9453C84.6157 94.9453 93.5917 98.2083 100.66 104.133C100.871 104.311 100.99 104.571 100.99 104.846C100.99 105.12 100.868 105.38 100.66 105.558C98.9892 106.958 97.1888 108.227 95.3142 109.33C95.1694 109.415 95.006 109.46 94.8427 109.46ZM75.3798 102.318C82.2139 102.318 88.9292 104.092 94.8353 107.455C96.1345 106.665 97.3929 105.792 98.5919 104.849C91.9991 99.6561 83.8027 96.8051 75.3798 96.8051C66.9569 96.8051 58.7604 99.6523 52.1676 104.849C53.3666 105.792 54.625 106.668 55.9243 107.455C61.8303 104.092 68.5457 102.318 75.3798 102.318Z" fill="white"/>
<path d="M86.3862 113.146C86.2972 113.146 86.2081 113.135 86.1227 113.109C82.6444 112.073 79.0325 111.546 75.3834 111.546C71.7343 111.546 68.1186 112.073 64.644 113.109C64.4696 113.161 64.2877 113.161 64.1132 113.109C61.0915 112.207 58.1774 110.937 55.4527 109.334C55.1706 109.167 54.9961 108.862 54.9961 108.536C54.9961 108.209 55.1706 107.901 55.4527 107.738C61.4738 104.196 68.3673 102.325 75.387 102.325C82.4068 102.325 89.2966 104.196 95.3215 107.738C95.6036 107.905 95.7781 108.209 95.7781 108.536C95.7781 108.862 95.6036 109.17 95.3215 109.334C92.5967 110.937 89.6827 112.207 86.6609 113.109C86.5756 113.135 86.4865 113.146 86.3974 113.146H86.3862ZM57.8174 108.532C59.9148 109.642 62.1123 110.555 64.3768 111.249C67.9442 110.214 71.6415 109.686 75.3797 109.686C79.1179 109.686 82.8151 110.21 86.3825 111.249C88.647 110.555 90.8445 109.646 92.9419 108.532C87.5556 105.677 81.5196 104.174 75.3797 104.174C69.2398 104.174 63.2037 105.677 57.8174 108.532Z" fill="white"/>
<path d="M75.38 114.747C71.549 114.747 67.7589 114.193 64.1098 113.106C63.7163 112.987 63.4453 112.627 63.4453 112.215C63.4453 111.803 63.7163 111.443 64.1098 111.324C67.7589 110.236 71.5528 109.683 75.38 109.683C79.2073 109.683 83.001 110.236 86.6501 111.324C87.0436 111.443 87.3146 111.803 87.3146 112.215C87.3146 112.627 87.0436 112.987 86.6501 113.106C83.001 114.193 79.2073 114.747 75.38 114.747ZM68.2786 112.219C72.9448 113.113 77.8189 113.113 82.4851 112.219C77.8189 111.324 72.9448 111.324 68.2786 112.219Z" fill="white"/>
</svg>
